<svg width="126" height="126" fill="none" xmlns="http://www.w3.org/2000/svg"><g filter="url(#a)"><path d="M63 115.5c28.995 0 52.5-23.505 52.5-52.5S91.995 10.5 63 10.5 10.5 34.005 10.5 63s23.505 52.5 52.5 52.5Z" fill="url(#b)"/><path d="M63 115.5c28.995 0 52.5-23.505 52.5-52.5S91.995 10.5 63 10.5 10.5 34.005 10.5 63s23.505 52.5 52.5 52.5Z" stroke="url(#c)" stroke-width="2" stroke-linecap="round" stroke-linejoin="round"/></g><path d="M52.5 42 84 63 52.5 84V42Z" fill="#6100C2"/><defs><linearGradient id="b" x1=".656" y1="-132.416" x2="122.05" y2="-132.403" gradientUnits="userSpaceOnUse"><stop stop-color="#fff" stop-opacity=".62"/><stop offset="1" stop-color="#fff" stop-opacity=".78"/></linearGradient><linearGradient id="c" x1="37.561" y1="-90.854" x2="125.951" y2="-89.891" gradientUnits="userSpaceOnUse"><stop stop-color="#F5F5F5" stop-opacity=".9"/><stop offset="1" stop-color="#fff" stop-opacity=".5"/></linearGradient><filter id="a" x="-14.5" y="-14.5" width="155" height="155" filterUnits="userSpaceOnUse" color-interpolation-filters="sRGB"><feFlood flood-opacity="0" result="BackgroundImageFix"/><feGaussianBlur in="BackgroundImageFix" stdDeviation="12"/><feComposite in2="SourceAlpha" operator="in" result="effect1_backgroundBlur_204_195"/><feBlend in="SourceGraphic" in2="effect1_backgroundBlur_204_195" result="shape"/></filter></defs></svg>