<svg width="56" height="56" fill="none" xmlns="http://www.w3.org/2000/svg"><g filter="url(#a)"><rect x="1" y="1" width="54" height="54" rx="14" fill="url(#b)"/><rect x=".5" y=".5" width="55" height="55" rx="14.5" stroke="url(#c)"/><path d="M36.84 20.61a5.5 5.5 0 0 0-7.78 0L28 21.67l-1.06-1.06a5.501 5.501 0 1 0-7.78 7.78l1.06 1.06L28 37.23l7.78-7.78 1.06-1.06a5.499 5.499 0 0 0 0-7.78v0Z" stroke="#6100C2" stroke-width="2" stroke-linecap="round" stroke-linejoin="round"/></g><defs><linearGradient id="b" x1="4.5" y1="-8" x2="147.569" y2="14.287" gradientUnits="userSpaceOnUse"><stop stop-color="#fff"/><stop offset="1" stop-color="#fff" stop-opacity="0"/></linearGradient><linearGradient id="c" x1="52" y1="65.5" x2="-4" y2="-18" gradientUnits="userSpaceOnUse"><stop stop-color="#fff"/><stop offset="1" stop-color="#fff" stop-opacity="0"/></linearGradient><filter id="a" x="-20" y="-20" width="96" height="96" filterUnits="userSpaceOnUse" color-interpolation-filters="sRGB"><feFlood flood-opacity="0" result="BackgroundImageFix"/><feGaussianBlur in="BackgroundImageFix" stdDeviation="10"/><feComposite in2="SourceAlpha" operator="in" result="effect1_backgroundBlur_10_83"/><feBlend in="SourceGraphic" in2="effect1_backgroundBlur_10_83" result="shape"/></filter></defs></svg>